<mxfile host="app.diagrams.net" modified="2023-12-23T00:52:56.092Z" agent="Mozilla/5.0 (Macintosh; Intel Mac OS X 10_15_7) AppleWebKit/537.36 (KHTML, like Gecko) Chrome/120.0.0.0 Safari/537.36" version="22.1.11" etag="GTaZtWhaH6DIQ1pKsrGg" type="github">
  <diagram name="第 1 页" id="tmXHkV7lGx5p22lm9wy6">
    <mxGraphModel>
      <root>
        <mxCell id="0" />
        <mxCell id="1" parent="0" />
      </root>
    </mxGraphModel>
  </diagram>
</mxfile>
